<?xml version="1.0" encoding="utf-8"?>
<!-- Generator: Adobe Illustrator 23.0.1, SVG Export Plug-In . SVG Version: 6.00 Build 0)  -->
<svg version="1.1" id="Layer_1" xmlns="http://www.w3.org/2000/svg" xmlns:xlink="http://www.w3.org/1999/xlink" x="0px" y="0px"
	 viewBox="0 0 300 250" style="enable-background:new 0 0 300 250;" xml:space="preserve">
<style type="text/css">
	.st0{fill:#FF6300;}
	.st1{fill:#FFFFFF;}
	.st2{fill:#606060;}
</style>
<g>
	<g>
		<path class="st0" d="M245.9,192.1c-0.9-0.7-2-1.1-3.2-1.3c1.2-0.2,2.3-0.7,3.1-1.3c0.8-0.6,1.4-1.4,1.9-2.3
			c0.4-0.9,0.6-1.9,0.6-2.9c0-1.7-0.3-3.2-1-4.4c-0.7-1.2-1.6-2.2-3-2.9c-0.9-0.5-2-0.8-3.2-0.9v-4.1h-2.8v4h-3.5v-4h-2.8v4h-0.5
			h-1.7h-2.5v0h-3.1v4h3.1v22.5h-3.1v4h6.6v0h0.7h0.5v4h2.8v-4h3.5v4h2.8v-4.1c1.2-0.1,2.3-0.5,3.3-0.9c1.4-0.7,2.4-1.7,3.1-2.9
			c0.7-1.3,1.1-2.7,1.1-4.4V198c0-1.2-0.2-2.3-0.7-3.4C247.4,193.6,246.7,192.7,245.9,192.1z M238.5,179.8c1.8,0,3.1,0.4,4,1.1
			c0.9,0.8,1.3,1.9,1.3,3.4c0,1.5-0.4,2.6-1.2,3.3c-0.8,0.7-2,1.1-3.6,1.1h-7.6v-9H238.5z M244.3,197.7c0,1.5-0.5,2.7-1.5,3.5
			c-1,0.8-2.6,1.2-4.7,1.2h-6.5v-9.7h7.6c1.2,0,2.2,0.2,3,0.6c0.8,0.4,1.3,1,1.7,1.7C244.1,195.7,244.3,196.6,244.3,197.7
			L244.3,197.7z"/>
		<g>
			<path d="M5.1,183.2c0.5-1.1,1.2-1.9,2.2-2.5c0.9-0.6,2-0.9,3.3-0.9c0.9,0,1.8,0.2,2.6,0.6c0.8,0.4,1.6,1,2.2,1.7
				c0.6,0.7,1.1,1.6,1.3,2.5h4.4c-0.3-1.8-1-3.4-2-4.8c-1-1.4-2.2-2.4-3.7-3.2c-1.5-0.7-3.1-1.1-4.8-1.1c-2.1,0-4,0.5-5.6,1.4
				c-1.6,0.9-2.8,2.3-3.7,4c-0.9,1.7-1.3,3.7-1.3,6v8.4c0,2.3,0.4,4.3,1.3,6c0.9,1.7,2.1,3,3.7,4c1.6,0.9,2.4,1.4,2.4,1.4
				s1.1,0,3.2,0c1.7,0,3.3-0.4,4.8-1.1c1.5-0.7,2.7-1.8,3.7-3.2c1-1.4,1.7-3,2-4.8h-4.4c-0.3,1-0.7,1.9-1.3,2.6
				c-0.6,0.7-1.3,1.3-2.2,1.7c-0.8,0.4-1.7,0.6-2.6,0.6c-1.2,0-2.3-0.3-3.3-0.9c-0.9-0.6-1.7-1.4-2.2-2.5c-0.5-1.1-0.8-2.3-0.8-3.8
				v-8.4C4.3,185.5,4.6,184.2,5.1,183.2z"/>
			<path d="M43.9,192.4c1.3-0.7,2.4-1.8,3.1-3.1c0.7-1.3,1.1-2.9,1.1-4.6s-0.4-3.3-1.1-4.6c-0.7-1.3-1.8-2.4-3.1-3.1
				c-1.3-0.7-2.9-1.1-4.6-1.1h-7.8H29h-1.9v30.5h4.3v-12.9h6.4l6.5,12.9h5.1l-7-13.3C42.9,192.9,43.4,192.6,43.9,192.4z M31.4,179.9
				h8c0.8,0,1.5,0.2,2.2,0.6c0.6,0.4,1.1,0.9,1.4,1.7c0.3,0.7,0.5,1.5,0.5,2.5s-0.2,1.8-0.5,2.5c-0.3,0.7-0.8,1.3-1.5,1.7
				c-0.6,0.4-1.3,0.6-2.2,0.6h-8V179.9z"/>
			<polygon points="62.2,189.6 55.5,175.9 50.7,175.9 60,194 60,206.4 64.3,206.4 64.3,194 73.6,175.9 68.8,175.9 			"/>
			<path d="M93.3,177c-1.4-0.8-3-1.2-4.8-1.2H81h-2.1h-2.2v30.5H81v-11.8h7.5c1.8,0,3.4-0.4,4.8-1.2c1.4-0.8,2.5-1.9,3.2-3.3
				c0.8-1.4,1.1-3,1.1-4.9c0-1.9-0.4-3.5-1.1-4.9C95.8,178.9,94.7,177.8,93.3,177z M92.7,188c-0.4,0.8-0.9,1.4-1.6,1.8
				c-0.7,0.4-1.5,0.6-2.4,0.6H81v-10.5h7.7c0.9,0,1.7,0.2,2.4,0.7c0.7,0.4,1.2,1.1,1.6,1.9c0.4,0.8,0.6,1.7,0.6,2.8
				C93.3,186.3,93.1,187.2,92.7,188z"/>
			<polygon points="99.3,179.9 107.9,179.9 107.9,206.4 112.2,206.4 112.2,179.9 120.8,179.9 120.8,175.9 99.3,175.9 			"/>
			<path d="M139.8,177c-1.6-0.9-3.5-1.4-5.6-1.4c-2.1,0-4,0.5-5.6,1.4c-1.6,0.9-2.9,2.2-3.8,3.9c-0.9,1.7-1.3,3.7-1.3,5.9v8.6
				c0,2.2,0.4,4.2,1.3,5.9c0.9,1.7,2.1,3,3.8,3.9c1.6,0.9,3.5,1.4,5.6,1.4c2.1,0,4-0.5,5.6-1.4c1.6-0.9,2.9-2.2,3.8-3.9
				c0.9-1.7,1.3-3.7,1.3-5.9v-8.6c0-2.2-0.4-4.2-1.3-5.9C142.7,179.2,141.4,177.9,139.8,177z M140.5,195.6c0,1.4-0.3,2.6-0.8,3.6
				c-0.5,1-1.3,1.8-2.2,2.4c-1,0.6-2.1,0.8-3.3,0.8s-2.4-0.3-3.3-0.8c-1-0.6-1.7-1.4-2.2-2.4c-0.5-1-0.8-2.2-0.8-3.6v-8.9
				c0-1.4,0.3-2.6,0.8-3.6c0.5-1,1.3-1.8,2.2-2.4c1-0.6,2.1-0.8,3.3-0.8s2.4,0.3,3.3,0.8c1,0.6,1.7,1.4,2.2,2.4
				c0.5,1,0.8,2.2,0.8,3.6V195.6z"/>
			<polygon points="153.9,175.9 151.8,175.9 151.8,206.4 153.9,206.4 156.1,206.4 171.4,206.4 171.4,202.3 156.1,202.3 156.1,193.3 
				169.1,193.3 169.1,189.2 156.1,189.2 156.1,179.9 171.4,179.9 171.4,175.9 156.1,175.9 			"/>
			<polygon points="173.3,179.9 181.9,179.9 181.9,206.4 186.2,206.4 186.2,179.9 194.8,179.9 194.8,175.9 173.3,175.9 			"/>
			<polygon points="215.5,189.3 202.4,189.3 202.4,175.9 198.2,175.9 198.2,206.4 202.4,206.4 202.4,193.4 215.5,193.4 215.5,206.4 
				219.8,206.4 219.8,175.9 215.5,175.9 			"/>
			<path d="M270.7,177c-1.6-0.9-3.5-1.4-5.6-1.4c-2.1,0-4,0.5-5.6,1.4c-1.6,0.9-2.9,2.2-3.8,3.9c-0.9,1.7-1.3,3.7-1.3,5.9v8.6
				c0,2.2,0.4,4.2,1.3,5.9c0.9,1.7,2.1,3,3.8,3.9c1.6,0.9,3.5,1.4,5.6,1.4c2.1,0,4-0.5,5.6-1.4c1.6-0.9,2.9-2.2,3.8-3.9
				c0.9-1.7,1.3-3.7,1.3-5.9v-8.6c0-2.2-0.4-4.2-1.3-5.9C273.6,179.2,272.3,177.9,270.7,177z M271.4,195.6c0,1.4-0.3,2.6-0.8,3.6
				c-0.5,1-1.3,1.8-2.2,2.4c-1,0.6-2.1,0.8-3.3,0.8c-1.3,0-2.4-0.3-3.3-0.8c-1-0.6-1.7-1.4-2.2-2.4c-0.5-1-0.8-2.2-0.8-3.6v-8.9
				c0-1.4,0.3-2.6,0.8-3.6c0.5-1,1.3-1.8,2.2-2.4c1-0.6,2.1-0.8,3.3-0.8c1.3,0,2.4,0.3,3.3,0.8c1,0.6,1.7,1.4,2.2,2.4
				c0.5,1,0.8,2.2,0.8,3.6V195.6z"/>
			<polygon points="300,175.9 278.5,175.9 278.5,179.9 287.1,179.9 287.1,206.4 291.4,206.4 291.4,179.9 300,179.9 			"/>
		</g>
	</g>
	<g>
		<path class="st0" d="M103.7,81.1c2.2,0,4.2-1,5.5-2.6l18.7,9.6l4.5,36.7l17.7,12.1l17.5-12.1l4.5-36.7l18.7-9.6
			c1.3,1.6,3.3,2.6,5.5,2.6c4,0,7.2-3.2,7.2-7.2c0-4-3.2-7.2-7.2-7.2c-4,0-7.2,3.2-7.2,7.2c0,0.6,0.1,1.2,0.2,1.7L169,86.1l-4.5,37
			l-14.4,10l-14.6-10l-4.5-37l-20.3-10.4c0.1-0.5,0.2-1.1,0.2-1.7c0-4-3.2-7.2-7.2-7.2c-4,0-7.2,3.2-7.2,7.2
			C96.5,77.9,99.7,81.1,103.7,81.1z"/>
		<path d="M111.5,123.4l4.8-3c1,0.8,2.2,1.2,3.6,1.2c1.4,0,2.6-0.5,3.6-1.2l4.1,2.7l1.8-2.8l-4-2.6c0.2-0.6,0.3-1.2,0.3-1.8
			c0-2.6-1.7-4.8-4.1-5.5l-0.4-23.1l-3.3,0.1l0.4,23c-2.4,0.7-4.2,2.9-4.2,5.5c0,0.7,0.1,1.3,0.3,1.9l-4.1,2.5
			c-1.3-1.9-3.5-3.1-5.9-3.1c-4,0-7.2,3.2-7.2,7.2c0,4,3.2,7.2,7.2,7.2c4,0,7.2-3.2,7.2-7.2C111.6,124,111.6,123.7,111.5,123.4z"/>
		<circle cx="150" cy="150.9" r="7.2"/>
		<path d="M195.8,117.3c-2.6,0-4.8,1.3-6.1,3.4l-3.9-2.3c0.3-0.7,0.4-1.4,0.4-2.2c0-2.8-1.9-5.1-4.5-5.6V87.3h-3.3v23.5
			c-2.2,0.8-3.7,2.9-3.7,5.4c0,0.5,0.1,1,0.2,1.5l-5.1,2.6l1.5,2.9l5.3-2.8c1,0.9,2.4,1.5,3.8,1.5c1.2,0,2.3-0.4,3.3-1l4.9,2.9
			c0,0.2,0,0.4,0,0.7c0,4,3.2,7.2,7.2,7.2c4,0,7.2-3.2,7.2-7.2C203,120.5,199.8,117.3,195.8,117.3z"/>
		<path d="M148.5,53.8v5.1c-2.5,0.7-4.3,2.9-4.3,5.6c0,0.3,0,0.7,0.1,1l-19.9,11.7l1.7,2.8l19.7-11.6c1.1,1.1,2.6,1.8,4.2,1.8
			c1.7,0,3.3-0.8,4.3-2l20,11.7l1.7-2.8l-20.3-11.8c0-0.3,0.1-0.5,0.1-0.8c0-2.6-1.7-4.7-4-5.5v-5.1c3.2-0.7,5.6-3.6,5.6-7
			c0-4-3.2-7.2-7.2-7.2c-4,0-7.2,3.2-7.2,7.2C143,50.2,145.4,53,148.5,53.8z"/>
		<rect x="157" y="137.6" transform="matrix(0.8612 -0.5082 0.5082 0.8612 -46.6675 107.4954)" width="32.9" height="3.3"/>
		<rect x="124.6" y="122.8" transform="matrix(0.5058 -0.8626 0.8626 0.5058 -57.8704 177.7282)" width="3.3" height="33.1"/>
		<rect x="101.6" y="83.4" width="3.3" height="30.7"/>
		<rect x="109.8" y="57.6" transform="matrix(0.8612 -0.5082 0.5082 0.8612 -12.5675 72.3965)" width="32.9" height="3.3"/>
		<rect x="171.9" y="42.5" transform="matrix(0.5059 -0.8626 0.8626 0.5059 34.852 178.9087)" width="3.3" height="33.1"/>
		<g>
			<g>
				<path d="M158.2,91.1h-16.5c-2.8,0-5.1,2.3-5.1,5.1v7.9c0,2.8,2.3,5.1,5.1,5.1h16.5c2.8,0,5.1-2.3,5.1-5.1v-7.9
					C163.3,93.3,161,91.1,158.2,91.1z M161.8,104.1c0,1.9-1.6,3.5-3.5,3.5h-16.5c-1.9,0-3.5-1.6-3.5-3.5v-8c0-1.9,1.6-3.5,3.5-3.5
					h16.5c1.9,0,3.5,1.6,3.5,3.5V104.1z"/>
				<g>
					<path d="M145.5,95.2c-0.3,0-0.6,0.1-0.8,0.2c0.1,0.2,0.2,0.4,0.2,0.7c0,0.6-0.5,1.1-1.1,1.1c-0.2,0-0.4,0-0.5-0.1
						c0,0.1,0,0.3,0,0.4c0,1.3,1,2.3,2.3,2.3c1.3,0,2.3-1,2.3-2.3S146.8,95.2,145.5,95.2z"/>
					<path d="M154.5,95.3c-0.3,0-0.6,0.1-0.8,0.2c0.1,0.2,0.2,0.4,0.2,0.7c0,0.6-0.5,1.1-1.1,1.1c-0.2,0-0.4,0-0.5-0.1
						c0,0.1,0,0.3,0,0.4c0,1.3,1,2.3,2.3,2.3c1.3,0,2.3-1,2.3-2.3C156.7,96.3,155.7,95.3,154.5,95.3z"/>
				</g>
				<path d="M146.4,103.2h7.1C153.6,103.2,150.6,108.6,146.4,103.2z"/>
			</g>
			<g>
				<path d="M141,111.8L141,111.8c0.3,0.1,0.4,0.5,0.3,0.7l-1.9,3.8c-0.1,0.2-0.4,0.4-0.7,0.3l0,0c-0.3-0.1-0.4-0.5-0.3-0.7l1.9-3.8
					C140.4,111.8,140.7,111.6,141,111.8z"/>
				<path d="M159,111.8L159,111.8c-0.3,0.1-0.4,0.5-0.3,0.7l1.9,3.8c0.1,0.2,0.4,0.4,0.7,0.3l0,0c0.3-0.1,0.4-0.5,0.3-0.7l-1.9-3.8
					C159.6,111.8,159.3,111.6,159,111.8z"/>
				<g>
					<path d="M154.2,120.7h-8.5c-2.1,0-3.8-1.7-3.8-3.8v-1.4c0-2.1,1.7-3.8,3.8-3.8h8.5c2.1,0,3.8,1.7,3.8,3.8v1.4
						C158.1,119,156.4,120.7,154.2,120.7z"/>
					<g>
						<circle class="st1" cx="146.8" cy="114.2" r="1"/>
						<circle class="st1" cx="149.8" cy="114.2" r="1"/>
						<circle class="st1" cx="153.2" cy="114.2" r="1"/>
					</g>
				</g>
			</g>
		</g>
		<g>
			<polygon class="st2" points="156.7,81.6 150,74.3 143.4,81.6 150,88.9 			"/>
			<polygon points="149.3,74.2 136,81.3 142.8,81.4 			"/>
			<polygon points="151,88.7 164.5,81.5 150.7,74.2 157.5,81.6 			"/>
			<polygon points="142.9,81.9 136,81.8 148.9,88.6 			"/>
			<polygon class="st1" points="143,81.4 142.8,81.4 142.6,81.6 142.9,81.9 143,81.9 			"/>
		</g>
	</g>
</g>
</svg>
