<?xml version="1.0" encoding="utf-8"?>
<!-- Generator: Adobe Illustrator 23.0.1, SVG Export Plug-In . SVG Version: 6.00 Build 0)  -->
<svg version="1.1" id="Layer_1" xmlns="http://www.w3.org/2000/svg" xmlns:xlink="http://www.w3.org/1999/xlink" x="0px" y="0px"
	 viewBox="0 0 133 40" style="enable-background:new 0 0 133 40;" xml:space="preserve">
<style type="text/css">
	.st0{fill:#FFFFFF;}
	.st1{fill:#3772FF;}
</style>
<g>
	<rect width="133" height="40"/>
	<g>
		<path class="st0" d="M116.6,21.8c-0.3-0.2-0.6-0.3-1-0.4c0.4-0.1,0.7-0.2,0.9-0.4c0.3-0.2,0.4-0.4,0.6-0.7
			c0.1-0.3,0.2-0.6,0.2-0.9c0-0.5-0.1-1-0.3-1.3c-0.2-0.4-0.5-0.7-0.9-0.9c-0.3-0.1-0.6-0.2-1-0.3v-1.3h-0.8v1.2h-1.1v-1.2h-0.8v1.2
			h-0.2h-0.5h-0.8l0,0H110V18h0.9v6.8H110V26h2l0,0h0.2h0.2v1.2h0.8V26h1.1v1.2h0.8V26c0.4,0,0.7-0.1,1-0.3c0.4-0.2,0.7-0.5,0.9-0.9
			c0.2-0.4,0.3-0.8,0.3-1.3l0,0c0-0.4-0.1-0.7-0.2-1C117,22.2,116.8,22,116.6,21.8z M114.3,18c0.5,0,1,0.1,1.2,0.3
			c0.3,0.2,0.4,0.6,0.4,1s-0.1,0.8-0.4,1c-0.2,0.2-0.6,0.3-1.1,0.3h-2.3V18H114.3z M116.1,23.5c0,0.5-0.2,0.8-0.5,1.1
			c-0.3,0.3-0.8,0.4-1.4,0.4h-2v-3h2.3c0.4,0,0.7,0.1,0.9,0.2c0.2,0.1,0.4,0.3,0.5,0.5C116,22.9,116.1,23.1,116.1,23.5L116.1,23.5z"
			/>
		<g>
			<path class="st0" d="M43.5,19.1c0.2-0.3,0.4-0.6,0.7-0.8c0.3-0.2,0.6-0.3,1-0.3c0.3,0,0.5,0.1,0.8,0.2s0.5,0.3,0.7,0.5
				s0.3,0.5,0.4,0.8h1.3c-0.1-0.5-0.3-1-0.6-1.4s-0.7-0.7-1.1-1c-0.4-0.2-0.9-0.3-1.5-0.3s-1.2,0.1-1.7,0.4s-0.9,0.7-1.1,1.2
				c-0.3,0.5-0.4,1.1-0.4,1.8v2.5c0,0.7,0.1,1.3,0.4,1.8c0.3,0.5,0.6,0.9,1.1,1.2c0.5,0.3,0.7,0.4,0.7,0.4s0.3,0,1,0
				c0.5,0,1-0.1,1.5-0.3c0.4-0.2,0.8-0.5,1.1-1c0.3-0.4,0.5-0.9,0.6-1.4H47c-0.1,0.3-0.2,0.6-0.4,0.8c-0.2,0.2-0.4,0.4-0.7,0.5
				s-0.5,0.2-0.8,0.2c-0.4,0-0.7-0.1-1-0.3c-0.3-0.2-0.5-0.4-0.7-0.8c-0.2-0.3-0.2-0.7-0.2-1.1v-2.5C43.2,19.8,43.3,19.4,43.5,19.1z
				"/>
			<path class="st0" d="M55.2,21.8c0.4-0.2,0.7-0.5,0.9-0.9s0.3-0.9,0.3-1.4s-0.1-1-0.3-1.4s-0.5-0.7-0.9-0.9
				c-0.4-0.2-0.9-0.3-1.4-0.3h-2.4h-0.7h-0.6v9.3h1.3v-3.9h1.9l2,3.9h1.5l-2.1-4C54.9,22,55.1,21.9,55.2,21.8z M51.5,18.1h2.4
				c0.3,0,0.5,0.1,0.7,0.2s0.3,0.3,0.4,0.5c0.1,0.2,0.2,0.5,0.2,0.8S55.1,20,55,20.3c-0.1,0.2-0.3,0.4-0.4,0.5
				c-0.2,0.1-0.4,0.2-0.7,0.2h-2.4C51.5,21,51.5,18.1,51.5,18.1z"/>
			<polygon class="st0" points="60.8,21 58.8,16.8 57.3,16.8 60.1,22.3 60.1,26.1 61.4,26.1 61.4,22.3 64.3,16.8 62.8,16.8 			"/>
			<path class="st0" d="M70.2,17.2c-0.4-0.2-0.9-0.4-1.5-0.4h-2.3h-0.6h-0.7v9.3h1.3v-3.6h2.3c0.6,0,1-0.1,1.5-0.3
				c0.4-0.2,0.7-0.6,1-1c0.2-0.4,0.3-0.9,0.3-1.5s-0.1-1.1-0.3-1.5C71,17.8,70.7,17.4,70.2,17.2z M70.1,20.5
				c-0.1,0.2-0.3,0.4-0.5,0.6c-0.2,0.1-0.5,0.2-0.7,0.2h-2.3v-3.2h2.3c0.3,0,0.5,0.1,0.7,0.2s0.4,0.3,0.5,0.6
				c0.1,0.2,0.2,0.5,0.2,0.8C70.2,20,70.2,20.3,70.1,20.5z"/>
			<polygon class="st0" points="72,18.1 74.7,18.1 74.7,26.1 76,26.1 76,18.1 78.6,18.1 78.6,16.8 72,16.8 			"/>
			<path class="st0" d="M84.4,17.2c-0.5-0.3-1.1-0.4-1.7-0.4s-1.2,0.1-1.7,0.4s-0.9,0.7-1.1,1.2c-0.3,0.5-0.4,1.1-0.4,1.8v2.6
				c0,0.7,0.1,1.3,0.4,1.8s0.7,0.9,1.1,1.2c0.5,0.3,1.1,0.4,1.7,0.4s1.2-0.1,1.7-0.4s0.9-0.7,1.1-1.2c0.3-0.5,0.4-1.1,0.4-1.8v-2.6
				c0-0.7-0.1-1.3-0.4-1.8C85.2,17.8,84.9,17.5,84.4,17.2z M84.6,22.8c0,0.4-0.1,0.8-0.2,1.1c-0.2,0.3-0.4,0.6-0.7,0.7
				c-0.3,0.2-0.6,0.3-1,0.3s-0.7-0.1-1-0.3c-0.3-0.2-0.5-0.4-0.7-0.7c-0.2-0.3-0.2-0.7-0.2-1.1v-2.7c0-0.4,0.1-0.8,0.2-1.1
				c0.2-0.3,0.4-0.6,0.7-0.7c0.3-0.2,0.6-0.3,1-0.3s0.7,0.1,1,0.3c0.3,0.2,0.5,0.4,0.7,0.7c0.2,0.3,0.2,0.7,0.2,1.1V22.8z"/>
			<polygon class="st0" points="88.6,16.8 88,16.8 88,26.1 88.6,26.1 89.3,26.1 94,26.1 94,24.9 89.3,24.9 89.3,22.1 93.3,22.1 
				93.3,20.9 89.3,20.9 89.3,18.1 94,18.1 94,16.8 89.3,16.8 			"/>
			<polygon class="st0" points="94.5,18.1 97.1,18.1 97.1,26.1 98.4,26.1 98.4,18.1 101.1,18.1 101.1,16.8 94.5,16.8 			"/>
			<polygon class="st0" points="107.3,20.9 103.4,20.9 103.4,16.8 102.1,16.8 102.1,26.1 103.4,26.1 103.4,22.2 107.3,22.2 
				107.3,26.1 108.6,26.1 108.6,16.8 107.3,16.8 			"/>
			<path class="st0" d="M124.1,17.2c-0.5-0.3-1.1-0.4-1.7-0.4s-1.2,0.1-1.7,0.4s-0.9,0.7-1.1,1.2c-0.3,0.5-0.4,1.1-0.4,1.8v2.6
				c0,0.7,0.1,1.3,0.4,1.8s0.7,0.9,1.1,1.2c0.5,0.3,1.1,0.4,1.7,0.4s1.2-0.1,1.7-0.4s0.9-0.7,1.1-1.2c0.3-0.5,0.4-1.1,0.4-1.8v-2.6
				c0-0.7-0.1-1.3-0.4-1.8C125,17.8,124.6,17.5,124.1,17.2z M124.3,22.8c0,0.4-0.1,0.8-0.2,1.1c-0.2,0.3-0.4,0.6-0.7,0.7
				c-0.3,0.2-0.6,0.3-1,0.3s-0.7-0.1-1-0.3c-0.3-0.2-0.5-0.4-0.7-0.7c-0.2-0.3-0.2-0.7-0.2-1.1v-2.7c0-0.4,0.1-0.8,0.2-1.1
				c0.2-0.3,0.4-0.6,0.7-0.7c0.3-0.2,0.6-0.3,1-0.3s0.7,0.1,1,0.3c0.3,0.2,0.5,0.4,0.7,0.7c0.2,0.3,0.2,0.7,0.2,1.1V22.8z"/>
			<polygon class="st0" points="133,16.8 126.5,16.8 126.5,18.1 129.1,18.1 129.1,26.1 130.4,26.1 130.4,18.1 133,18.1 			"/>
		</g>
	</g>
	<g>
		<path class="st1" d="M2.4,14c0.7,0,1.4-0.3,1.9-0.9l6.3,3.2l1.5,12.4l5.9,4.1l5.9-4.1l1.5-12.4l6.3-3.2c0.4,0.5,1.1,0.9,1.9,0.9
			c1.3,0,2.4-1.1,2.4-2.4s-1.1-2.4-2.4-2.4c-1.3,0-2.4,1.1-2.4,2.4c0,0.2,0,0.4,0.1,0.6l-6.8,3.5L23,28.1l-5,3.4l-4.9-3.4l-1.5-12.4
			l-6.8-3.5c0-0.2,0.1-0.4,0.1-0.6c0-1.3-1.1-2.4-2.4-2.4C1.1,9.2,0,10.3,0,11.6S1.1,14,2.4,14z"/>
		<path class="st1" d="M5.1,28.2l1.6-1c0.3,0.3,0.7,0.4,1.2,0.4s0.9-0.2,1.2-0.4l1.4,0.9l0.6-0.9l-1.3-0.9c0.1-0.2,0.1-0.4,0.1-0.6
			c0-0.9-0.6-1.6-1.4-1.9L8.4,16H7.3l0.1,7.7c-0.8,0.2-1.4,1-1.4,1.9c0,0.2,0,0.4,0.1,0.6l-1.4,0.9c-0.4-0.6-1.2-1.1-2-1.1
			c-1.3,0-2.4,1.1-2.4,2.4s1.1,2.4,2.4,2.4s2.4-1.1,2.4-2.4C5.1,28.5,5.1,28.3,5.1,28.2z"/>
		<circle class="st1" cx="18" cy="37.5" r="2.4"/>
		<path class="st1" d="M33.4,26.2c-0.9,0-1.6,0.5-2,1.1l-1.3-0.8c0.1-0.2,0.1-0.5,0.1-0.7c0-0.9-0.7-1.7-1.5-1.9v-7.8h-1.1V24
			c-0.7,0.3-1.3,1-1.3,1.8c0,0.2,0,0.3,0.1,0.5l-1.7,0.9l0.5,1l1.8-0.9c0.3,0.3,0.8,0.5,1.3,0.5c0.4,0,0.8-0.1,1.1-0.3l1.6,1
			c0,0.1,0,0.2,0,0.2c0,1.3,1.1,2.4,2.4,2.4s2.4-1.1,2.4-2.4C35.8,27.3,34.8,26.2,33.4,26.2z"/>
		<path class="st1" d="M17.5,4.8v1.7c-0.8,0.2-1.4,1-1.4,1.9c0,0.1,0,0.2,0,0.3l-6.7,3.9l0.6,0.9l6.6-3.9c0.4,0.4,0.9,0.6,1.4,0.6
			c0.6,0,1.1-0.3,1.5-0.7l6.7,3.9l0.6-1l-6.8-4c0-0.1,0-0.2,0-0.3c0-0.9-0.6-1.6-1.3-1.8V4.8c1.1-0.2,1.9-1.2,1.9-2.4
			c0-1.3-1.1-2.4-2.4-2.4s-2.4,1.1-2.4,2.4C15.6,3.6,16.4,4.6,17.5,4.8z"/>
		
			<rect x="20.38" y="32.98" transform="matrix(0.8612 -0.5082 0.5082 0.8612 -13.4417 17.8323)" class="st1" width="11.1" height="1.1"/>
		
			<rect x="9.44" y="28.12" transform="matrix(0.5058 -0.8626 0.8626 0.5058 -24.1118 25.2563)" class="st1" width="1.1" height="11.1"/>
		<rect x="1.7" y="14.8" class="st1" width="1.1" height="10.3"/>
		
			<rect x="4.49" y="6.09" transform="matrix(0.8612 -0.5082 0.5082 0.8612 -1.9795 6.0235)" class="st1" width="11.1" height="1.1"/>
		
			<rect x="25.35" y="1.01" transform="matrix(0.5059 -0.8626 0.8626 0.5059 7.1361 25.5826)" class="st1" width="1.1" height="11.1"/>
		<g>
			<g>
				<path class="st1" d="M20.8,17.4h-5.5c-0.9,0-1.7,0.8-1.7,1.7v2.6c0,0.9,0.8,1.7,1.7,1.7h5.5c0.9,0,1.7-0.8,1.7-1.7v-2.6
					C22.5,18.1,21.7,17.4,20.8,17.4z M22,21.8c0,0.7-0.5,1.2-1.2,1.2h-5.6c-0.7,0-1.2-0.5-1.2-1.2v-2.7c0-0.7,0.5-1.2,1.2-1.2h5.6
					c0.7,0,1.2,0.5,1.2,1.2V21.8z"/>
				<g>
					<path class="st1" d="M16.5,18.8c-0.1,0-0.2,0-0.3,0.1c0,0.1,0.1,0.1,0.1,0.2c0,0.2-0.2,0.4-0.4,0.4c-0.1,0-0.1,0-0.2,0
						c0,0,0,0.1,0,0.2c0,0.4,0.3,0.8,0.8,0.8s0.8-0.3,0.8-0.8S16.9,18.8,16.5,18.8z"/>
					<path class="st1" d="M19.5,18.8c-0.1,0-0.2,0-0.3,0.1c0,0.1,0.1,0.1,0.1,0.2c0,0.2-0.2,0.4-0.4,0.4c-0.1,0-0.1,0-0.2,0
						c0,0,0,0.1,0,0.2c0,0.4,0.3,0.8,0.8,0.8s0.8-0.3,0.8-0.8C20.3,19.1,19.9,18.8,19.5,18.8z"/>
				</g>
				<path class="st1" d="M16.8,21.5h2.4C19.2,21.5,18.2,23.3,16.8,21.5z"/>
			</g>
			<g>
				<path class="st1" d="M15,24.3L15,24.3c0.1,0,0.1,0.2,0.1,0.3l-0.6,1.3c0,0.1-0.1,0.1-0.2,0.1l0,0c-0.1,0-0.2-0.2-0.1-0.3
					l0.6-1.3C14.8,24.3,14.9,24.3,15,24.3z"/>
				<path class="st1" d="M21,24.3L21,24.3c-0.1,0-0.1,0.2-0.1,0.3l0.6,1.3c0,0.1,0.1,0.1,0.2,0.1l0,0c0.1,0,0.2-0.2,0.1-0.3
					l-0.6-1.3C21.2,24.3,21.1,24.3,21,24.3z"/>
				<g>
					<path class="st1" d="M19.6,27.4h-3.2c-0.6,0-1.1-0.5-1.1-1.1v-0.8c0-0.6,0.5-1.1,1.1-1.1h3.2c0.6,0,1.1,0.5,1.1,1.1v0.8
						C20.7,26.9,20.2,27.4,19.6,27.4z"/>
					<g>
						<circle class="st1" cx="16.9" cy="25.1" r="0.3"/>
						<circle class="st1" cx="17.9" cy="25.1" r="0.3"/>
						<circle class="st1" cx="19.1" cy="25.1" r="0.3"/>
					</g>
				</g>
			</g>
		</g>
		<g>
			<polygon class="st1" points="20.3,14.2 18,11.7 15.8,14.2 18,16.7 			"/>
			<polygon class="st1" points="17.8,11.7 13.3,14.1 15.6,14.1 			"/>
			<polygon class="st1" points="18.3,16.6 22.9,14.2 18.2,11.7 20.5,14.2 			"/>
			<polygon class="st1" points="15.6,14.3 13.3,14.3 17.6,16.6 			"/>
			<polygon class="st1" points="15.6,14.1 15.6,14.1 15.5,14.2 15.6,14.3 15.6,14.3 			"/>
		</g>
	</g>
</g>
</svg>
