<?xml version="1.0" encoding="utf-8"?>
<!-- Generator: Adobe Illustrator 23.0.1, SVG Export Plug-In . SVG Version: 6.00 Build 0)  -->
<svg version="1.1" id="Layer_1" xmlns="http://www.w3.org/2000/svg" xmlns:xlink="http://www.w3.org/1999/xlink" x="0px" y="0px"
	 viewBox="0 0 32 32" style="enable-background:new 0 0 32 32;" xml:space="preserve">
<style type="text/css">
	.st0{fill:#3772FF;}
</style>
<g>
	<path class="st0" d="M3.5,11.2c0.6,0,1.1-0.2,1.5-0.7l5.1,2.6l1.2,9.9l4.7,3.3l4.7-3.3l1.2-9.9l5.1-2.6c0.3,0.4,0.9,0.7,1.5,0.7
		c1,0,1.9-0.9,1.9-1.9s-0.9-1.9-1.9-1.9c-1,0-1.9,0.9-1.9,1.9c0,0.2,0,0.3,0.1,0.5l-5.5,2.8L20,22.5l-4,2.7l-3.9-2.7l-1.2-9.9
		L5.4,9.8c0-0.2,0.1-0.3,0.1-0.5c0-1-0.9-1.9-1.9-1.9c-1.1,0-2,0.9-2,1.9S2.4,11.2,3.5,11.2z"/>
	<path class="st0" d="M5.7,22.6l1.3-0.8c0.2,0.2,0.6,0.3,1,0.3c0.4,0,0.7-0.2,1-0.3l1.1,0.7l0.5-0.7l-1-0.7c0.1-0.2,0.1-0.3,0.1-0.5
		c0-0.7-0.5-1.3-1.1-1.5l-0.1-6.3H7.4L7.5,19c-0.6,0.2-1.1,0.8-1.1,1.5c0,0.2,0,0.3,0.1,0.5l-1.1,0.7c-0.3-0.5-1-0.9-1.6-0.9
		c-1,0-1.9,0.9-1.9,1.9s0.9,1.9,1.9,1.9s1.9-0.9,1.9-1.9C5.7,22.9,5.7,22.7,5.7,22.6z"/>
	<circle class="st0" cx="16" cy="30.1" r="1.9"/>
	<path class="st0" d="M28.4,21c-0.7,0-1.3,0.4-1.6,0.9l-1-0.6c0.1-0.2,0.1-0.4,0.1-0.6c0-0.7-0.6-1.4-1.2-1.5v-6.3h-0.9v6.3
		c-0.6,0.2-1,0.8-1,1.4c0,0.2,0,0.2,0.1,0.4l-1.4,0.7l0.4,0.8l1.4-0.7c0.2,0.2,0.6,0.4,1,0.4c0.3,0,0.6-0.1,0.9-0.2l1.3,0.8
		c0,0.1,0,0.2,0,0.2c0,1,0.9,1.9,1.9,1.9c1,0,1.9-0.9,1.9-1.9C30.3,21.9,29.5,21,28.4,21z"/>
	<path class="st0" d="M15.6,3.8v1.4C15,5.4,14.5,6,14.5,6.7c0,0.1,0,0.2,0,0.2l-5.4,3.1l0.5,0.7l5.3-3.1C15.2,8,15.6,8.2,16,8.2
		c0.5,0,0.9-0.2,1.2-0.6l5.4,3.1l0.5-0.8l-5.5-3.2c0-0.1,0-0.2,0-0.2c0-0.7-0.5-1.3-1-1.4V3.8c0.9-0.2,1.5-1,1.5-1.9
		c0-1-0.9-1.9-1.9-1.9s-1.9,0.9-1.9,1.9C14.1,2.9,14.7,3.7,15.6,3.8z"/>
	
		<rect x="17.9" y="26.4" transform="matrix(0.8612 -0.5082 0.5082 0.8612 -10.5633 15.0964)" class="st0" width="8.9" height="0.9"/>
	<rect x="9.1" y="22.6" transform="matrix(0.5058 -0.8626 0.8626 0.5058 -18.5649 21.6047)" class="st0" width="0.9" height="8.9"/>
	<rect x="2.9" y="11.9" class="st0" width="0.9" height="8.3"/>
	<rect x="5.2" y="4.9" transform="matrix(0.8612 -0.5082 0.5082 0.8612 -1.3706 5.6257)" class="st0" width="8.9" height="0.9"/>
	<rect x="21.9" y="0.8" transform="matrix(0.5059 -0.8626 0.8626 0.5059 6.4959 21.8664)" class="st0" width="0.9" height="8.9"/>
	<g>
		<g>
			<path class="st0" d="M18.2,14h-4.4c-0.7,0-1.4,0.6-1.4,1.4v2.1c0,0.7,0.6,1.4,1.4,1.4h4.4c0.7,0,1.4-0.6,1.4-1.4v-2.1
				C19.6,14.5,19,14,18.2,14z M19.2,17.5c0,0.6-0.4,1-1,1h-4.5c-0.6,0-1-0.4-1-1v-2.2c0-0.6,0.4-1,1-1h4.5c0.6,0,1,0.4,1,1V17.5z"/>
			<g>
				<path class="st0" d="M14.8,15.1c-0.1,0-0.2,0-0.2,0.1c0,0.1,0.1,0.1,0.1,0.2c0,0.2-0.2,0.3-0.3,0.3c-0.1,0-0.1,0-0.2,0
					c0,0,0,0.1,0,0.2c0,0.3,0.2,0.6,0.6,0.6c0.4,0,0.6-0.2,0.6-0.6S15.1,15.1,14.8,15.1z"/>
				<path class="st0" d="M17.2,15.1c-0.1,0-0.2,0-0.2,0.1c0,0.1,0.1,0.1,0.1,0.2c0,0.2-0.2,0.3-0.3,0.3c-0.1,0-0.1,0-0.2,0
					c0,0,0,0.1,0,0.2c0,0.3,0.2,0.6,0.6,0.6c0.4,0,0.6-0.2,0.6-0.6C17.8,15.3,17.5,15.1,17.2,15.1z"/>
			</g>
			<path class="st0" d="M15,17.2H17C17,17.2,16.2,18.7,15,17.2z"/>
		</g>
		<g>
			<path class="st0" d="M13.6,19.5L13.6,19.5c0.1,0,0.1,0.2,0.1,0.2l-0.5,1c0,0.1-0.1,0.1-0.2,0.1l0,0c-0.1,0-0.2-0.2-0.1-0.2l0.5-1
				C13.4,19.5,13.5,19.5,13.6,19.5z"/>
			<path class="st0" d="M18.4,19.5L18.4,19.5c-0.1,0-0.1,0.2-0.1,0.2l0.5,1c0,0.1,0.1,0.1,0.2,0.1l0,0c0.1,0,0.2-0.2,0.1-0.2l-0.5-1
				C18.6,19.5,18.5,19.5,18.4,19.5z"/>
			<g>
				<path class="st0" d="M17.3,19.6h-2.6c-0.5,0-0.9,0.4-0.9,0.9v0.6c0,0.5,0.4,0.9,0.9,0.9h2.6c0.5,0,0.9-0.4,0.9-0.9v-0.6
					C18.2,20,17.8,19.6,17.3,19.6z M15.1,20.4c-0.1,0-0.2-0.1-0.2-0.2c0-0.1,0.1-0.2,0.2-0.2c0.1,0,0.2,0.1,0.2,0.2
					C15.4,20.3,15.3,20.4,15.1,20.4z M15.9,20.4c-0.1,0-0.2-0.1-0.2-0.2c0-0.1,0.1-0.2,0.2-0.2c0.1,0,0.2,0.1,0.2,0.2
					C16.2,20.3,16.1,20.4,15.9,20.4z M16.9,20.4c-0.1,0-0.2-0.1-0.2-0.2c0-0.1,0.1-0.2,0.2-0.2c0.1,0,0.2,0.1,0.2,0.2
					C17.1,20.3,17,20.4,16.9,20.4z"/>
			</g>
		</g>
	</g>
	<g>
		<polygon class="st0" points="17.8,11.4 16,9.4 14.2,11.4 16,13.4 		"/>
		<polygon class="st0" points="15.8,9.4 12.2,11.3 14.1,11.3 		"/>
		<polygon class="st0" points="16.2,13.3 19.9,11.4 16.2,9.4 18,11.4 		"/>
		<polygon class="st0" points="14.1,11.5 12.2,11.5 15.7,13.3 		"/>
		<polygon class="st0" points="14.1,11.3 14.1,11.3 14,11.4 14.1,11.5 14.1,11.5 		"/>
	</g>
</g>
</svg>
