<?xml version="1.0" encoding="utf-8"?>
<!-- Generator: Adobe Illustrator 23.0.1, SVG Export Plug-In . SVG Version: 6.00 Build 0)  -->
<svg version="1.1" id="Layer_1" xmlns="http://www.w3.org/2000/svg" xmlns:xlink="http://www.w3.org/1999/xlink" x="0px" y="0px"
	 viewBox="0 0 328 276" style="enable-background:new 0 0 328 276;" xml:space="preserve">
<style type="text/css">
	.st0{fill:#3772FF;}
</style>
<g>
	<path class="st0" d="M56.09,96.84c4.84,0,9.68-2.08,13.14-6.23l43.58,22.14l10.38,85.77L164,226.89l40.81-28.36l10.38-85.77
		l43.58-22.14c2.77,3.46,7.61,6.23,13.14,6.23c8.99,0,16.6-7.61,16.6-16.6s-7.61-16.6-16.6-16.6c-8.99,0-16.6,7.61-16.6,16.6
		c0,1.38,0,2.77,0.69,4.15l-47.04,24.21l-10.38,85.77L164,217.89l-33.89-23.52l-10.38-85.77L72.69,84.39c0-1.38,0.69-2.77,0.69-4.15
		c0-8.99-7.61-16.6-16.6-16.6c-9.68,0-17.29,7.61-17.29,16.6S47.1,96.84,56.09,96.84z"/>
	<path class="st0" d="M74.77,195.07l11.07-6.92c2.08,2.08,4.84,2.77,8.3,2.77c3.46,0,6.23-1.38,8.3-2.77l9.68,6.23l4.15-6.23
		l-8.99-6.23c0.69-1.38,0.69-2.77,0.69-4.15c0-6.23-4.15-11.07-9.68-13.14l-0.69-53.95h-7.61l0.69,53.26
		c-5.53,1.38-9.68,6.92-9.68,13.14c0,1.38,0,2.77,0.69,4.15L72,187.46c-2.77-4.15-8.3-7.61-13.83-7.61c-8.99,0-16.6,7.61-16.6,16.6
		c0,8.99,7.61,16.6,16.6,16.6s16.6-7.61,16.6-16.6C74.77,197.14,74.77,195.76,74.77,195.07z"/>
	<circle class="st0" cx="164" cy="259.4" r="16.6"/>
	<path class="st0" d="M270.53,181.23c-6.23,0-11.07,3.46-13.83,7.61l-8.99-5.53c0.69-1.38,0.69-3.46,0.69-4.84
		c0-6.23-4.84-11.76-10.38-13.14v-53.95h-7.61v54.65c-4.84,2.08-8.99,6.92-8.99,12.45c0,1.38,0,2.08,0.69,3.46l-11.76,6.23
		l3.46,6.92l12.45-6.23c2.08,2.08,5.53,3.46,8.99,3.46c2.77,0,5.53-0.69,7.61-2.08l11.07,6.92c0,0.69,0,1.38,0,1.38
		c0,8.99,7.61,16.6,16.6,16.6c8.99,0,16.6-7.61,16.6-16.6C287.13,188.84,280.21,181.23,270.53,181.23z"/>
	<path class="st0" d="M160.54,33.2v11.76c-5.53,1.38-9.68,6.92-9.68,13.14c0,0.69,0,1.38,0,2.08l-46.35,26.98l4.15,6.23l45.65-26.98
		c2.77,2.77,6.23,4.15,9.68,4.15c4.15,0,7.61-2.08,10.38-4.84l46.35,26.98l4.15-6.92l-47.04-27.67c0-0.69,0-1.38,0-2.08
		c0-6.23-4.15-11.07-8.99-12.45V33.2c7.61-1.38,13.14-8.3,13.14-16.6c0-8.99-7.61-16.6-16.6-16.6s-16.6,7.61-16.6,16.6
		C147.4,24.9,152.93,31.82,160.54,33.2z"/>
	
		<rect x="180.48" y="228.13" transform="matrix(0.8612 -0.5082 0.5082 0.8612 -87.5 143.4202)" class="st0" width="76.78" height="7.61"/>
	
		<rect x="104.77" y="194.54" transform="matrix(0.5058 -0.8626 0.8626 0.5058 -147.2737 208.7694)" class="st0" width="7.61" height="76.78"/>
	<rect x="51.25" y="102.38" class="st0" width="7.61" height="71.25"/>
	
		<rect x="70.55" y="42.1" transform="matrix(0.8612 -0.5082 0.5082 0.8612 -8.2132 61.7352)" class="st0" width="76.78" height="7.61"/>
	
		<rect x="214.83" y="7" transform="matrix(0.5059 -0.8626 0.8626 0.5059 68.8742 211.0253)" class="st0" width="7.61" height="76.78"/>
	<g>
		<g>
			<path class="st0" d="M183.37,120.36h-38.05c-6.23,0-11.76,5.53-11.76,11.76v17.99c0,6.23,5.53,11.76,11.76,11.76h38.05
				c6.23,0,11.76-5.53,11.76-11.76v-17.99C195.13,125.2,189.59,120.36,183.37,120.36z M191.67,150.8c0,4.84-3.46,8.3-8.3,8.3h-38.74
				c-4.84,0-8.3-3.46-8.3-8.3v-18.68c0-4.84,3.46-8.3,8.3-8.3h38.74c4.84,0,8.3,3.46,8.3,8.3V150.8z"/>
			<g>
				<path class="st0" d="M153.62,130.05c-0.69,0-1.38,0-2.08,0.69c0,0.69,0.69,0.69,0.69,1.38c0,1.38-1.38,2.77-2.77,2.77
					c-0.69,0-0.69,0-1.38,0c0,0,0,0.69,0,1.38c0,2.77,2.08,5.53,5.53,5.53c3.46,0,5.53-2.08,5.53-5.53S156.39,130.05,153.62,130.05z
					"/>
				<path class="st0" d="M174.38,130.05c-0.69,0-1.38,0-2.08,0.69c0,0.69,0.69,0.69,0.69,1.38c0,1.38-1.38,2.77-2.77,2.77
					c-0.69,0-0.69,0-1.38,0c0,0,0,0.69,0,1.38c0,2.77,2.08,5.53,5.53,5.53s5.53-2.08,5.53-5.53
					C179.91,132.12,177.14,130.05,174.38,130.05z"/>
			</g>
			<path class="st0" d="M155.7,148.72h16.6C172.3,148.72,165.38,161.17,155.7,148.72z"/>
		</g>
		<g>
			<path class="st0" d="M143.25,168.09L143.25,168.09c0.69,0,0.69,1.38,0.69,2.08l-4.15,8.99c0,0.69-0.69,0.69-1.38,0.69l0,0
				c-0.69,0-1.38-1.38-0.69-2.08l4.15-8.99C141.86,168.09,142.56,168.09,143.25,168.09z"/>
			<path class="st0" d="M184.75,168.09L184.75,168.09c-0.69,0-0.69,1.38-0.69,2.08l4.15,8.99c0,0.69,0.69,0.69,1.38,0.69l0,0
				c0.69,0,1.38-1.38,0.69-2.08l-4.15-8.99C186.14,168.09,185.44,168.09,184.75,168.09z"/>
			<g>
				<path class="st0" d="M175.07,168.78h-22.14c-4.15,0-7.61,3.46-7.61,7.61v5.53c0,4.15,3.46,7.61,7.61,7.61h22.14
					c4.15,0,7.61-3.46,7.61-7.61v-5.53C182.68,172.24,179.22,168.78,175.07,168.78z M156.39,175.7c-1.18,0-2.08-0.9-2.08-2.08
					s0.9-2.08,2.08-2.08c1.18,0,2.08,0.9,2.08,2.08S157.57,175.7,156.39,175.7z M163.31,175.7c-1.18,0-2.08-0.9-2.08-2.08
					s0.9-2.08,2.08-2.08c1.18,0,2.08,0.9,2.08,2.08S164.48,175.7,163.31,175.7z M171.61,175.7c-1.18,0-2.08-0.9-2.08-2.08
					s0.9-2.08,2.08-2.08c1.18,0,2.08,0.9,2.08,2.08S172.79,175.7,171.61,175.7z"/>
			</g>
		</g>
	</g>
	<g>
		<polygon class="st0" points="179.91,98.23 164,80.93 148.78,98.23 164,115.52 		"/>
		<polygon class="st0" points="162.62,80.93 131.49,97.53 147.4,97.53 		"/>
		<polygon class="st0" points="166.08,114.83 197.89,98.23 165.38,80.93 181.29,98.23 		"/>
		<polygon class="st0" points="147.4,98.92 131.49,98.92 161.23,114.83 		"/>
		<polygon class="st0" points="147.4,97.53 147.4,97.53 146.71,98.23 147.4,98.92 147.4,98.92 		"/>
	</g>
</g>
</svg>
